HIERARCHY
ROOT Root
{
  OFFSET 0.0 0.0 0.0
  CHANNELS 6 Xposition Yposition Zposition Zrotation Yrotation Xrotation
  JOINT Hips
  {
    OFFSET 0.0 100.0 0.0
    CHANNELS 6 Xposition Yposition Zposition Zrotation Yrotation Xrotation
    JOINT Spine1
    {
      OFFSET 5.003913 -0.037094 -0.013727
      CHANNELS 3 Zrotation Yrotation Xrotation
      JOINT Spine2
      {
        OFFSET 7.125363 -1e-06 0.0
        CHANNELS 3 Zrotation Yrotation Xrotation
        JOINT Chest
        {
          OFFSET 7.594027 1e-06 0.0
          CHANNELS 3 Zrotation Yrotation Xrotation
          JOINT Neck1
          {
            OFFSET 26.313086 -0.460272 -0.181672
            CHANNELS 3 Zrotation Yrotation Xrotation
            JOINT Neck2
            {
              OFFSET 8.045911 0.0 0.0
              CHANNELS 3 Zrotation Yrotation Xrotation
              JOINT Head
              {
                OFFSET 6.432774 0.0 0.0
                CHANNELS 3 Zrotation Yrotation Xrotation
                JOINT HeadEnd
                {
                  OFFSET 16.169773 0.06451 0.00362
                  CHANNELS 3 Zrotation Yrotation Xrotation
                }
                JOINT Jaw
                {
                  OFFSET 0.108741 3.12938 0.002639
                  CHANNELS 3 Zrotation Yrotation Xrotation
                }
                JOINT LeftEye
                {
                  OFFSET 4.45173 8.166359 3.206392
                  CHANNELS 3 Zrotation Yrotation Xrotation
                }
                JOINT RightEye
                {
                  OFFSET 4.436895 8.135758 -3.222429
                  CHANNELS 3 Zrotation Yrotation Xrotation
                }
              }
            }
          }
          JOINT LeftShoulder
          {
            OFFSET 23.218927 5.195579 1.621656
            CHANNELS 3 Zrotation Yrotation Xrotation
            JOINT LeftArm
            {
              OFFSET 15.902118 2e-06 -2e-06
              CHANNELS 3 Zrotation Yrotation Xrotation
              JOINT LeftForeArm
              {
                OFFSET 28.739307 0.0 -1e-06
                CHANNELS 3 Zrotation Yrotation Xrotation
                JOINT LeftHand
                {
                  OFFSET 27.093981 -4e-06 0.0
                  CHANNELS 3 Zrotation Yrotation Xrotation
                  JOINT LeftHandThumb1
                  {
                    OFFSET 2.276781 3.380274 0.83384
                    CHANNELS 3 Zrotation Yrotation Xrotation
                    JOINT LeftHandThumb2
                    {
                      OFFSET 4.705309 -1e-06 -1e-06
                      CHANNELS 3 Zrotation Yrotation Xrotation
                      JOINT LeftHandThumb3
                      {
                        OFFSET 2.798515 0.0 3e-06
                        CHANNELS 3 Zrotation Yrotation Xrotation
                        JOINT LeftHandThumbEnd
                        {
                          OFFSET 3.180793 4e-06 -4e-06
                          CHANNELS 3 Zrotation Yrotation Xrotation
                        }
                      }
                    }
                  }
                  JOINT LeftHandIndex1
                  {
                    OFFSET 3.247786 2.352677 0.137192
                    CHANNELS 3 Zrotation Yrotation Xrotation
                    JOINT LeftHandIndex2
                    {
                      OFFSET 6.367095 1e-06 0.0
                      CHANNELS 3 Zrotation Yrotation Xrotation
                      JOINT LeftHandIndex3
                      {
                        OFFSET 3.662364 0.0 0.0
                        CHANNELS 3 Zrotation Yrotation Xrotation
                        JOINT LeftHandIndex4
                        {
                          OFFSET 2.329242 4e-06 -4e-06
                          CHANNELS 3 Zrotation Yrotation Xrotation
                          JOINT LeftHandIndexEnd
                          {
                            OFFSET 2.767823 1e-06 0.0
                            CHANNELS 3 Zrotation Yrotation Xrotation
                          }
                        }
                      }
                    }
                  }
                  JOINT LeftHandMiddle1
                  {
                    OFFSET 3.163612 0.945023 -0.406112
                    CHANNELS 3 Zrotation Yrotation Xrotation
                    JOINT LeftHandMiddle2
                    {
                      OFFSET 6.276789 3e-06 0.0
                      CHANNELS 3 Zrotation Yrotation Xrotation
                      JOINT LeftHandMiddle3
                      {
                        OFFSET 4.35652 -1e-06 4e-06
                        CHANNELS 3 Zrotation Yrotation Xrotation
                        JOINT LeftHandMiddle4
                        {
                          OFFSET 2.996877 0.0 8e-06
                          CHANNELS 3 Zrotation Yrotation Xrotation
                          JOINT LeftHandMiddleEnd
                          {
                            OFFSET 2.323256 3e-06 -4e-06
                            CHANNELS 3 Zrotation Yrotation Xrotation
                          }
                        }
                      }
                    }
                  }
                  JOINT LeftHandRing1
                  {
                    OFFSET 2.882606 -0.309162 0.107445
                    CHANNELS 3 Zrotation Yrotation Xrotation
                    JOINT LeftHandRing2
                    {
                      OFFSET 6.033198 0.0 4e-06
                      CHANNELS 3 Zrotation Yrotation Xrotation
                      JOINT LeftHandRing3
                      {
                        OFFSET 4.350578 3e-06 0.0
                        CHANNELS 3 Zrotation Yrotation Xrotation
                        JOINT LeftHandRing4
                        {
                          OFFSET 2.651321 2e-06 -7e-06
                          CHANNELS 3 Zrotation Yrotation Xrotation
                          JOINT LeftHandRingEnd
                          {
                            OFFSET 1.937663 1e-06 -4e-06
                            CHANNELS 3 Zrotation Yrotation Xrotation
                          }
                        }
                      }
                    }
                  }
                  JOINT LeftHandPinky1
                  {
                    OFFSET 2.865315 -1.525436 0.575687
                    CHANNELS 3 Zrotation Yrotation Xrotation
                    JOINT LeftHandPinky2
                    {
                      OFFSET 5.54936 1e-06 -8e-06
                      CHANNELS 3 Zrotation Yrotation Xrotation
                      JOINT LeftHandPinky3
                      {
                        OFFSET 3.070974 0.0 -4e-06
                        CHANNELS 3 Zrotation Yrotation Xrotation
                        JOINT LeftHandPinky4
                        {
                          OFFSET 1.549672 1e-06 0.0
                          CHANNELS 3 Zrotation Yrotation Xrotation
                          JOINT LeftHandPinkyEnd
                          {
                            OFFSET 1.952123 0.0 0.0
                            CHANNELS 3 Zrotation Yrotation Xrotation
                          }
                        }
                      }
                    }
                  }
                }
              }
            }
          }
          JOINT RightShoulder
          {
            OFFSET 23.161716 5.296122 -1.380114
            CHANNELS 3 Zrotation Yrotation Xrotation
            JOINT RightArm
            {
              OFFSET -16.027195 -2e-06 1.1e-05
              CHANNELS 3 Zrotation Yrotation Xrotation
              JOINT RightForeArm
              {
                OFFSET -28.736639 4e-06 2e-06
                CHANNELS 3 Zrotation Yrotation Xrotation
                JOINT RightHand
                {
                  OFFSET -27.133619 6e-06 0.0
                  CHANNELS 3 Zrotation Yrotation Xrotation
                  JOINT RightHandThumb1
                  {
                    OFFSET -2.274328 -3.351035 -0.83067
                    CHANNELS 3 Zrotation Yrotation Xrotation
                    JOINT RightHandThumb2
                    {
                      OFFSET -4.703594 -3e-06 2e-06
                      CHANNELS 3 Zrotation Yrotation Xrotation
                      JOINT RightHandThumb3
                      {
                        OFFSET -2.794935 -4e-06 -3e-06
                        CHANNELS 3 Zrotation Yrotation Xrotation
                        JOINT RightHandThumbEnd
                        {
                          OFFSET -3.183852 4e-06 1e-06
                          CHANNELS 3 Zrotation Yrotation Xrotation
                        }
                      }
                    }
                  }
                  JOINT RightHandIndex1
                  {
                    OFFSET -3.253496 -2.33755 -0.127667
                    CHANNELS 3 Zrotation Yrotation Xrotation
                    JOINT RightHandIndex2
                    {
                      OFFSET -6.344434 0.0 0.0
                      CHANNELS 3 Zrotation Yrotation Xrotation
                      JOINT RightHandIndex3
                      {
                        OFFSET -3.654871 0.0 -8e-06
                        CHANNELS 3 Zrotation Yrotation Xrotation
                        JOINT RightHandIndex4
                        {
                          OFFSET -2.327586 -1e-06 0.0
                          CHANNELS 3 Zrotation Yrotation Xrotation
                          JOINT RightHandIndexEnd
                          {
                            OFFSET -2.770001 3e-06 8e-06
                            CHANNELS 3 Zrotation Yrotation Xrotation
                          }
                        }
                      }
                    }
                  }
                  JOINT RightHandMiddle1
                  {
                    OFFSET -3.168223 -0.944764 0.411762
                    CHANNELS 3 Zrotation Yrotation Xrotation
                    JOINT RightHandMiddle2
                    {
                      OFFSET -6.266691 -1e-06 -4e-06
                      CHANNELS 3 Zrotation Yrotation Xrotation
                      JOINT RightHandMiddle3
                      {
                        OFFSET -4.348901 0.0 0.0
                        CHANNELS 3 Zrotation Yrotation Xrotation
                        JOINT RightHandMiddle4
                        {
                          OFFSET -3.00024 2e-06 -4e-06
                          CHANNELS 3 Zrotation Yrotation Xrotation
                          JOINT RightHandMiddleEnd
                          {
                            OFFSET -2.321477 -4e-06 -4e-06
                            CHANNELS 3 Zrotation Yrotation Xrotation
                          }
                        }
                      }
                    }
                  }
                  JOINT RightHandRing1
                  {
                    OFFSET -2.885654 0.293261 -0.119232
                    CHANNELS 3 Zrotation Yrotation Xrotation
                    JOINT RightHandRing2
                    {
                      OFFSET -6.032835 -1e-06 -4e-06
                      CHANNELS 3 Zrotation Yrotation Xrotation
                      JOINT RightHandRing3
                      {
                        OFFSET -4.33881 0.0 -4e-06
                        CHANNELS 3 Zrotation Yrotation Xrotation
                        JOINT RightHandRing4
                        {
                          OFFSET -2.654903 -4e-06 -4e-06
                          CHANNELS 3 Zrotation Yrotation Xrotation
                          JOINT RightHandRingEnd
                          {
                            OFFSET -1.935122 0.0 4e-06
                            CHANNELS 3 Zrotation Yrotation Xrotation
                          }
                        }
                      }
                    }
                  }
                  JOINT RightHandPinky1
                  {
                    OFFSET -2.866241 1.503904 -0.60527
                    CHANNELS 3 Zrotation Yrotation Xrotation
                    JOINT RightHandPinky2
                    {
                      OFFSET -5.553177 -2e-06 0.0
                      CHANNELS 3 Zrotation Yrotation Xrotation
                      JOINT RightHandPinky3
                      {
                        OFFSET -3.062664 -1e-06 -4e-06
                        CHANNELS 3 Zrotation Yrotation Xrotation
                        JOINT RightHandPinky4
                        {
                          OFFSET -1.546529 2e-06 4e-06
                          CHANNELS 3 Zrotation Yrotation Xrotation
                          JOINT RightHandPinkyEnd
                          {
                            OFFSET -1.952341 0.0 -4e-06
                            CHANNELS 3 Zrotation Yrotation Xrotation
                          }
                        }
                      }
                    }
                  }
                }
              }
            }
          }
        }
      }
    }
    JOINT LeftLeg
    {
      OFFSET -8.443107 2.567604 10.043214
      CHANNELS 3 Zrotation Yrotation Xrotation
      JOINT LeftShin
      {
        OFFSET 43.229198 1e-06 -1e-06
        CHANNELS 3 Zrotation Yrotation Xrotation
        JOINT LeftFoot
        {
          OFFSET 42.298611 1e-06 1e-06
          CHANNELS 3 Zrotation Yrotation Xrotation
          JOINT LeftToeBase
          {
            OFFSET 14.165858 1e-06 0.0
            CHANNELS 3 Zrotation Yrotation Xrotation
            JOINT LeftToeEnd
            {
              OFFSET 6.7141 -0.234461 0.0
              CHANNELS 3 Zrotation Yrotation Xrotation
            }
          }
        }
      }
    }
    JOINT RightLeg
    {
      OFFSET -8.303923 2.592729 -10.047278
      CHANNELS 3 Zrotation Yrotation Xrotation
      JOINT RightShin
      {
        OFFSET -43.369682 0.0 1e-06
        CHANNELS 3 Zrotation Yrotation Xrotation
        JOINT RightFoot
        {
          OFFSET -42.260784 4e-06 2e-06
          CHANNELS 3 Zrotation Yrotation Xrotation
          JOINT RightToeBase
          {
            OFFSET -14.222245 -2e-06 -1e-06
            CHANNELS 3 Zrotation Yrotation Xrotation
            JOINT RightToeEnd
            {
              OFFSET -6.660062 0.232574 -2e-06
              CHANNELS 3 Zrotation Yrotation Xrotation
            }
          }
        }
      }
    }
  }
}
MOTION
Frames: 4
Frame Time: 0.03333333333333333
0.0 0.0 0.0 0.0 -0.0 0.0 1.126256 94.176605 -7.343274 88.951134 0.935759 89.800873 2.916556 0.099497 -0.790341 -9.41443 -0.957316 -3.171419 14.676468 0.691976 -5.28677 19.445421 0.061194 3.019326 -2.676861 -0.775016 -1.409478 -34.387768 0.91906 -2.951692 0.00342 -0.000253 0.000836 -0.047863 0.011629 -0.081726 -0.045495 -0.005312 -0.118483 -0.099796 0.023418 -0.025613 -118.836029 -77.905693 131.977188 23.540369 -58.722401 -1.804888 39.649254 -0.264884 -0.412073 1.316196 -7.817818 4.191626 17.615643 -26.36116 52.458111 -19.469707 -14.377913 29.425247 -0.005033 -8.758817 0.01341 16.070684 -18.139296 5.927873 -0.600799 -1.783201 -3.898443 -4.791204 -11.03455 -2.935959 -0.000831 -20.949718 0.005322 -4.993124 -25.024464 -4.035893 0.001019 -0.002119 0.003832 -10.601946 -5.667633 -3.566068 10.56367 -17.91729 -3.121391 -0.007015 -13.798978 0.016463 -0.488571 -31.125832 -4.034527 -12.219696 -59.890072 7.906456 -13.938976 -7.123051 -2.872456 13.738529 -8.40992 -3.227394 0.365251 -34.19302 0.776706 -0.948988 -17.755798 2.628948 -0.003913 0.005758 0.004781 -17.287645 -20.066193 -4.208476 21.709639 -1.643846 3.839222 0.006039 -6.347264 0.006328 -1.68319 -22.556646 -6.173474 0.002522 0.001209 -0.007868 53.604282 -70.448013 141.260834 14.479795 -63.874672 14.180034 23.703182 0.229558 0.041652 -3.64977 -6.73651 8.817612 22.147688 -20.411654 49.984325 -16.712738 -16.738354 28.499146 0.004082 -12.678742 0.000223 15.867888 -18.254354 3.247801 -0.104073 -1.512533 -4.271423 -5.037399 -5.610726 -2.947221 0.00236 -11.032184 0.000355 -6.114373 -15.90218 -3.842346 0.006028 0.004025 0.003257 -10.273353 -5.673602 -4.328508 11.022281 -11.29493 -2.371925 -1.382085 -14.231675 -6.320055 -0.636527 -26.944773 -3.813176 -4.440026 -50.91433 -3.116976 -13.701976 -7.356312 -3.710529 18.136539 -14.052536 -3.235877 0.002377 -18.790838 -0.002056 -0.430777 -8.446816 2.556819 -0.000768 0.001125 0.000124 -15.909334 -20.08555 -5.467304 30.412104 -7.205721 1.731872 -0.003583 -8.142832 0.00247 -1.864906 -22.834806 -6.157391 0.000623 -0.007781 -0.001235 -157.972198 -5.018116 -13.983478 20.045321 -0.535215 1.004188 -79.083176 15.22385 -0.537556 -26.526342 2.097023 1.887563 -0.998017 -0.001075 0.000245 -28.624058 -0.725142 -9.029233 13.541203 0.348719 0.554018 -62.65662 -5.29947 -0.726866 -8.660801 0.854035 1.577208 -0.99961 0.004659 9e-06 
0.0 0.0 0.0 0.0 -0.0 0.0 0.257156 94.232544 -2.009604 87.796913 1.138739 90.148743 2.573009 0.961425 -0.661626 -9.607165 -0.800684 -3.232074 14.724809 1.163792 -5.114611 19.633537 -0.624492 2.897383 -2.696207 -0.70705 -1.226797 -33.942734 0.835125 -2.617571 -0.002594 0.000189 0.001129 -0.038189 0.032887 0.015419 -0.024354 0.024371 -0.029007 -0.080321 0.035393 0.071913 -118.33252 -77.000702 131.687622 21.793221 -59.805389 0.436024 39.985336 -0.289638 -0.321026 1.239756 -7.611852 4.596132 17.659279 -26.328777 52.415215 -19.454863 -14.388967 29.401623 -0.00112 -8.780752 -0.01453 16.163443 -18.199139 5.954061 -0.601733 -1.795486 -3.88153 -4.806684 -11.042944 -2.949602 0.001096 -20.976442 0.014517 -5.022541 -25.024855 -4.013144 0.007076 0.001425 -0.007289 -10.621367 -5.688941 -3.562954 10.567123 -17.928049 -3.108901 0.000727 -13.824107 -0.000587 -0.519931 -31.141359 -4.026377 -12.106602 -59.885876 7.824417 -13.971514 -7.147185 -2.87896 13.762356 -8.409128 -3.198395 0.357745 -34.245667 0.765074 -0.955693 -17.761179 2.625176 -0.0046 0.003623 -0.007194 -17.324028 -20.099979 -4.198887 21.737677 -1.634681 3.86339 -0.001178 -6.351773 0.006192 -1.691298 -22.563276 -6.201615 0.012221 -0.007953 0.003571 52.980724 -70.59359 142.249283 13.905838 -63.124432 14.580174 23.415249 0.255781 0.015446 -3.339868 -6.956557 8.000323 22.193815 -20.363834 49.884075 -16.70573 -16.741922 28.462379 0.002848 -12.701262 -0.001957 16.209585 -18.484564 2.990383 -0.105539 -1.514556 -4.269797 -5.036575 -5.618745 -2.950211 0.003468 -11.028929 0.002715 -6.11585 -15.913793 -3.832184 -0.004899 0.011988 -0.002419 -10.279312 -5.679387 -4.329621 11.033607 -11.319277 -2.37814 -1.384797 -14.272229 -6.318494 -0.625243 -26.962076 -3.830831 -4.463938 -51.18084 -3.258822 -13.704618 -7.364221 -3.711557 18.13693 -14.063633 -3.233358 0.00123 -18.809078 -0.001479 -0.419513 -8.484656 2.550257 -0.001662 0.01032 -0.000495 -15.924067 -20.107218 -5.461212 30.412579 -7.195803 1.744711 -0.001715 -8.151233 -0.005057 -1.858834 -22.850807 -6.173845 -0.001304 -7e-06 -0.000301 -159.165527 -8.018918 -14.36635 27.446268 -0.689016 1.13824 -71.277069 14.670376 1.377605 -35.518585 2.287556 1.786939 -1.001847 0.000144 -0.000665 -29.097507 0.567648 -9.040941 20.133472 0.183251 0.447157 -62.392673 -5.227444 -0.475353 -7.868244 0.71651 1.615368 -0.995039 -0.002787 -0.000796 
0.0 0.0 0.0 0.0 -0.0 0.0 -0.743779 94.613426 3.624731 86.688072 1.941783 90.070175 2.529966 1.601161 -0.57612 -9.654521 -0.599059 -3.092935 14.709513 1.849707 -4.96654 20.260908 -1.332634 2.741569 -2.634016 -0.616767 -0.910987 -34.07346 0.850528 -2.282826 -0.000789 0.000515 0.001992 0.004328 0.030498 0.037624 -0.0051 0.012295 -0.006115 -0.039026 0.039449 0.084256 -117.551888 -76.870514 130.931961 19.341484 -61.848579 2.871325 39.353958 -0.359374 -0.3535 0.996672 -8.004452 5.338369 17.649748 -26.425278 52.592667 -19.541079 -14.439495 29.484234 -0.007791 -8.787583 0.019904 16.292156 -18.099516 5.88084 -0.591066 -1.797415 -3.86818 -4.816794 -11.069941 -2.95083 0.006979 -20.996658 -0.018576 -5.016215 -25.094318 -4.027383 -0.000847 -0.006443 0.001904 -10.637932 -5.688945 -3.544211 10.609614 -17.968842 -3.14235 0.002642 -13.846797 0.003693 -0.484213 -31.221317 -4.01563 -12.26788 -59.779865 7.8634 -13.992845 -7.157161 -2.851601 13.802327 -8.413829 -3.240834 0.365769 -34.29707 0.759373 -0.956284 -17.781258 2.633475 -0.002862 0.010296 -0.002278 -17.356819 -20.128155 -4.189277 21.798429 -1.652292 3.857797 -0.008698 -6.344606 -0.006373 -1.688316 -22.615767 -6.194289 0.001108 0.000568 -0.003309 53.3605 -71.446922 142.56192 13.832329 -62.748573 14.977601 23.61643 0.339221 0.028454 -3.18274 -7.244503 6.444028 22.18786 -20.410612 50.000694 -16.71726 -16.757883 28.513128 -0.000686 -12.690746 0.003236 16.419956 -18.616848 2.862698 -0.104398 -1.516577 -4.284461 -5.043625 -5.624214 -2.948058 0.001973 -11.023837 -0.002968 -6.103371 -15.916904 -3.844108 -0.0 0.01175 -0.001927 -10.289248 -5.688083 -4.34812 11.035145 -11.323312 -2.379627 -1.384065 -14.272276 -6.328178 -0.636438 -26.969416 -3.833995 -4.649904 -51.195747 -3.363553 -13.712455 -7.373057 -3.726237 18.142666 -14.06643 -3.25231 -0.004253 -18.816061 -0.000142 -0.438258 -8.470321 2.564852 -0.001047 1.3e-05 0.000792 -15.917549 -20.127113 -5.488662 30.404608 -7.198186 1.728929 0.002298 -8.176687 0.000337 -1.853236 -22.911152 -6.178418 -0.000241 0.007751 0.000693 -161.986801 -11.083841 -13.630526 37.467171 -0.783743 1.118421 -60.387234 12.993589 2.973646 -37.060181 2.152444 1.871318 -1.01147 -0.000524 0.000911 -27.522804 2.192816 -9.172684 25.414165 0.110832 0.207273 -65.254326 -5.033032 0.420872 -7.129852 0.56722 1.591568 -1.002359 0.002201 -0.000255 
0.0 0.0 0.0 0.0 -0.0 0.0 -1.638248 95.113281 8.405609 85.686035 2.780584 89.958542 2.773624 2.165098 -0.451362 -9.555413 -0.395714 -2.911812 14.556074 2.212533 -4.648586 20.718998 -1.634482 2.658088 -2.582051 -0.51728 -1.018797 -34.146755 0.776301 -2.076818 0.0 0.000128 0.00158 0.02831 0.035135 0.059675 0.025702 0.016191 0.019288 0.007571 0.043576 0.101163 -116.850792 -76.173935 130.202988 16.240168 -63.068424 6.547398 38.12899 -0.376858 -0.247528 0.500318 -8.552459 6.286146 17.645901 -26.327345 52.455101 -19.496836 -14.400728 29.450741 0.002555 -8.78774 0.004982 16.612751 -18.402271 5.961812 -0.609949 -1.795821 -3.909397 -4.813167 -11.059011 -2.919682 -0.0016 -21.013258 -0.005888 -5.022639 -25.06963 -4.025516 0.000351 0.007397 -0.006721 -10.639749 -5.696302 -3.551712 10.588021 -17.944111 -3.146843 0.002588 -13.854719 0.005557 -0.498613 -31.245224 -4.067289 -12.169818 -60.218105 7.985774 -14.003032 -7.164221 -2.880591 13.794465 -8.40715 -3.206984 0.344867 -34.249725 0.747881 -0.959383 -17.756538 2.594398 -0.001813 -0.00416 0.001071 -17.382717 -20.131664 -4.208493 21.798841 -1.636084 3.885554 -0.005859 -6.334558 -0.008901 -1.705972 -22.634899 -6.218111 -0.000529 0.001696 -0.002852 53.899704 -71.982887 141.96788 14.260819 -62.452503 14.688375 24.480146 0.397193 0.013641 -2.843446 -7.347754 5.288877 22.228979 -20.316013 49.905773 -16.690065 -16.730211 28.426405 0.014089 -12.695936 -0.008756 16.363476 -18.688272 2.801907 -0.107472 -1.515467 -4.281058 -5.046654 -5.610284 -2.955362 -0.003285 -11.020376 -0.001146 -6.116387 -15.900023 -3.848449 -0.006714 0.000257 0.001259 -10.300901 -5.685259 -4.339551 11.039052 -11.288965 -2.372703 -1.398573 -14.247719 -6.324565 -0.625458 -26.910223 -3.843186 -4.576291 -50.772408 -3.403488 -13.735288 -7.372387 -3.719698 18.160025 -14.040862 -3.243558 0.000672 -18.794235 -0.004814 -0.428503 -8.469031 2.555678 -0.002555 0.00821 0.002944 -15.957001 -20.102242 -5.47514 30.442781 -7.184616 1.749381 0.001744 -8.1527 -0.001512 -1.86541 -22.82688 -6.177391 -0.000727 -0.015497 0.001621 -166.62735 -13.236216 -11.583345 48.306911 -1.067966 0.951507 -51.268375 9.330906 2.952681 -21.502172 1.748088 2.177048 -0.995839 -0.000192 -0.000336 -24.838562 3.728068 -9.432716 28.470638 0.036029 0.113626 -70.354012 -4.975908 1.291973 -7.123937 0.592152 1.600051 -0.995345 -0.004584 -0.000713 
